<?xml version="1.0" encoding="UTF-8" standalone="no"?>
<svg width="1427px" height="1332px" viewBox="0 0 1427 1332" version="1.1" xmlns="http://www.w3.org/2000/svg" xmlns:xlink="http://www.w3.org/1999/xlink" xmlns:sketch="http://www.bohemiancoding.com/sketch/ns">
    <!-- Generator: Sketch 3.0.3 (7892) - http://www.bohemiancoding.com/sketch -->
    <title>tagli-fr</title>
    <desc>Created with Sketch.</desc>
    <defs></defs>
    <g id="Page-1" stroke="none" stroke-width="1" fill="none" fill-rule="evenodd" sketch:type="MSPage">
        <g id="tagli-fr" sketch:type="MSArtboardGroup">
            <path d="M81,647 C81,301.816919 360.816919,22 706,22 C1051.18939,22 1331,301.816919 1331,647 C1331,992.183081 1051.18939,1272 706,1272 C360.816919,1272 81,992.183081 81,647 L387.24852,849.69837" id="Fill-1303" fill="#F6A623" sketch:type="MSShapeGroup" transform="translate(706.000000, 647.000000) rotate(-1.000000) translate(-706.000000, -647.000000) "></path>
            <path d="M446.237207,542.615519 C487.692607,486.9712 571.706895,438.950136 674.286993,419.010585 C832.034113,388.347651 973.950235,435.703656 991.265542,524.783188 C1008.58085,613.862721 894.738384,710.933159 736.991264,741.596093 C631.236757,762.152687 532.597386,747.644193 473.846492,709.006751 C471.429543,766.782563 454.257469,808.607562 426.353955,814.031455 C384.504812,822.166105 400.901889,732.408247 380.899724,629.506028 C360.897559,526.60381 312.070569,449.524225 353.919712,441.389576 C385.468316,435.257148 421.728938,477.407942 446.237207,542.615519 Z" id="Oval-1" fill="#C3493F" sketch:type="MSShapeGroup"></path>
            <ellipse id="Oval-3" fill="#FFFFFF" sketch:type="MSShapeGroup" cx="817.954002" cy="539.335938" rx="83.5793124" ry="88.3302083"></ellipse>
            <path d="M858.567393,566.65314 C877.3393,563.004251 889.876163,546.254858 886.56926,529.242321 C883.262358,512.229784 865.363949,501.396408 846.592041,505.045298 C827.820134,508.694187 815.283272,525.44358 818.590174,542.456117 C821.897076,559.468653 839.795486,570.302029 858.567393,566.65314 Z" id="Oval-4" fill="#C3493F" sketch:type="MSShapeGroup"></path>
            <path d="M780.171948,691.900457 C770.457131,682.106314 765.727951,673.839464 763.781252,667.103491 C758.643518,649.325888 773.776544,646.317387 766.900145,649.931988 C757.418263,654.91617 748.465573,669.58656 772.224387,699.476738 C784.715921,715.191923 791.537044,725.31623 799.822631,727.255264 C807.296176,729.00426 813.971463,723.999576 818.468111,721.635899 C827.949993,716.651718 815.526146,727.543336 780.171948,691.900457 Z" id="Oval-5" fill="#FFFFFF" sketch:type="MSShapeGroup"></path>
            <text id="Suis-moi-et-sois-rém" sketch:type="MSTextLayer" font-family="Chalkduster" font-size="60" font-weight="normal" sketch:alignment="middle" fill="#C3493F">
                <tspan x="422.016575" y="1043">Suis moi et sois </tspan>
                <tspan x="513.80663" y="1120">rémunéré!</tspan>
            </text>
            <text id="Je-suis-perdu!" sketch:type="MSTextLayer" font-family="Chalkduster" font-size="105" font-weight="normal" sketch:alignment="middle" fill="#C3493F">
                <tspan x="311.077348" y="362.960296">Je suis perdu!</tspan>
            </text>
            <text id="http://tagli.io/XXXX" sketch:type="MSTextLayer" font-family="Chalkduster" font-size="65" font-weight="normal" sketch:alignment="middle" fill="#000000">
                <tspan x="337.342541" y="927">http://tagli.io/XXXX</tspan>
            </text>
        </g>
    </g>
</svg>