<?xml version="1.0" encoding="UTF-8" standalone="no"?>
<svg width="1083px" height="1073px" viewBox="0 0 1083 1073" version="1.1" xmlns="http://www.w3.org/2000/svg" xmlns:xlink="http://www.w3.org/1999/xlink" xmlns:sketch="http://www.bohemiancoding.com/sketch/ns">
    <!-- Generator: Sketch 3.0.3 (7892) - http://www.bohemiancoding.com/sketch -->
    <title>tagli-kc-oneside-fr</title>
    <desc>Created with Sketch.</desc>
    <defs></defs>
    <g id="Page-1" stroke="none" stroke-width="1" fill="none" fill-rule="evenodd" sketch:type="MSPage">
        <g id="tagli-kc-oneside-fr" sketch:type="MSArtboardGroup">
            <path d="M61,510 C61,243.242515 277.242515,27 544,27 C810.762364,27 1027,243.242515 1027,510 C1027,776.757485 810.762364,993 544,993 C277.242515,993 61,776.757485 61,510 L297.668857,666.645301" id="Fill-1303" fill="#F6A623" sketch:type="MSShapeGroup"></path>
            <g id="icon_6758" sketch:type="MSLayerGroup" transform="translate(865.000000, 683.000000)" fill="#010101">
                <path d="M29.2060513,0 C25.2836543,0 22.1180176,4.408748 19.9997602,8.51500983 C17.8815028,4.408748 14.7163457,0 10.7939487,0 C7.19909754,0 4.28571429,2.90348503 4.28571429,6.48505519 C4.28571429,10.0671032 7.19909754,12.9705882 10.7939487,12.9705882 L17.9874876,12.9705882 L22.0125124,12.9705882 L29.2060513,12.9705882 C32.8004229,12.9705882 35.7142857,10.0671032 35.7142857,6.48505519 C35.7142857,2.90348503 32.8004229,0 29.2060513,0 L29.2060513,0 Z M10.9752978,8.64705882 C9.64980433,8.64705882 8.57142857,7.67729118 8.57142857,6.48529412 C8.57142857,5.29329706 9.64980433,4.32352941 10.9752978,4.32352941 C11.7882864,4.32352941 13.5661881,5.33393824 15.7142857,8.64705882 L10.9752978,8.64705882 L10.9752978,8.64705882 Z M29.024864,8.64705882 L24.2857143,8.64705882 C26.4351095,5.33393824 28.2119301,4.32352941 29.024864,4.32352941 C30.3502683,4.32352941 31.4285714,5.29329706 31.4285714,6.48529412 C31.4285714,7.67729118 30.3502683,8.64705882 29.024864,8.64705882 L29.024864,8.64705882 Z" id="Shape" sketch:type="MSShapeGroup"></path>
                <path d="M37.1428571,45.5303931 L37.1428571,30.2647059 L25.7142857,30.2647059 L25.7142857,49 L33.7814849,49 C35.6379337,49 37.1428571,47.4471044 37.1428571,45.5303931 L37.1428571,45.5303931 Z" id="Shape" sketch:type="MSShapeGroup"></path>
                <path d="M2.85714286,30.2647059 L2.85714286,45.5304831 C2.85714286,47.446659 4.36206633,49 6.21851508,49 L14.2857143,49 L14.2857143,30.2647059 L2.85714286,30.2647059 L2.85714286,30.2647059 Z" id="Shape" sketch:type="MSShapeGroup"></path>
                <path d="M0,18.0147059 L0,25.2205882 C0,26.963296 1.16857143,28.4164773 2.72095238,28.7503912 L2.72095238,28.8235294 L14.2857143,28.8235294 L14.2857143,14.4117647 L3.40142857,14.4117647 C1.52285714,14.4117647 0,16.0243369 0,18.0147059 L0,18.0147059 Z" id="Shape" sketch:type="MSShapeGroup"></path>
                <path d="M36.5990476,14.4117647 L25.7142857,14.4117647 L25.7142857,28.8235294 L37.2785714,28.8235294 L37.2785714,28.7503886 C38.8314286,28.4154542 40,26.9632309 40,25.2204621 L40,18.014832 C40,16.0243933 38.477619,14.4117647 36.5990476,14.4117647 L36.5990476,14.4117647 Z" id="Shape" sketch:type="MSShapeGroup"></path>
                <path d="M15.7142857,28.5292 L15.7142857,29.9413882 L15.7142857,49 L24.2857143,49 L24.2857143,29.9413882 L24.2857143,28.5292 L24.2857143,14.4117647 L15.7142857,14.4117647 L15.7142857,28.5292 Z" id="Shape" sketch:type="MSShapeGroup"></path>
            </g>
            <path d="M315.025554,482.121322 C349.443353,434.30679 419.81609,393.216583 505.957151,376.472457 C638.074754,350.791396 757.254618,392.105604 772.152843,468.750329 C787.051068,545.395053 692.025998,628.346483 559.908395,654.027543 C471.395034,671.232797 388.688712,658.367568 339.257235,624.953686 C337.66632,675.228045 323.408992,711.649255 299.8509,716.228484 C264.801078,723.041479 278.163088,645.958158 260.95307,557.420287 C243.743051,468.882415 202.47809,402.4175 237.527912,395.604505 C263.810883,390.495613 294.207248,426.47153 315.025554,482.12132 Z" id="Oval-1" fill="#C3493F" sketch:type="MSShapeGroup"></path>
            <ellipse id="Oval-3" fill="#FFFFFF" sketch:type="MSShapeGroup" transform="translate(627.000000, 480.000000) rotate(349.000000) translate(-627.000000, -480.000000) " cx="627" cy="480" rx="70" ry="76"></ellipse>
            <path d="M656,504 C672.016259,504 685,491.911689 685,477 C685,462.088311 672.016259,450 656,450 C639.983741,450 627,462.088311 627,477 C627,491.911689 639.983741,504 656,504 Z" id="Oval-4" fill="#C3493F" sketch:type="MSShapeGroup" transform="translate(656.000000, 477.000000) rotate(349.000000) translate(-656.000000, -477.000000) "></path>
            <path d="M595.356478,611.267702 C587.220048,602.840745 583.259229,595.727883 581.628814,589.932199 C577.325819,574.636211 590.000149,572.047673 584.240974,575.157704 C576.299634,579.446133 568.801507,592.068651 588.700175,617.786393 C599.162182,631.307861 604.875062,640.018894 611.814472,641.687254 C618.073774,643.192104 623.664513,638.886035 627.430581,636.852308 C635.37192,632.56388 624.966603,641.935113 595.356478,611.267702 Z" id="Oval-5" fill="#FFFFFF" sketch:type="MSShapeGroup"></path>
            <text id="Suis-moi-et-soit-rém" sketch:type="MSTextLayer" font-family="Comic Sans MS" font-size="46.049999" font-weight="normal" sketch:alignment="middle" fill="#000000">
                <tspan x="531.726151" y="694">Suis moi et soit </tspan>
                <tspan x="591.143691" y="758">rémunéré!</tspan>
            </text>
            <text id="------tagli.io/XXXX" sketch:type="MSTextLayer" font-family="PT Sans" font-size="96.656" font-weight="bold" sketch:alignment="middle" fill="#C3493F">
                <tspan x="115.763088" y="884">      tagli.io/XXXX</tspan>
            </text>
            <text id="Je-suis-perdu!" sketch:type="MSTextLayer" font-family="PT Sans" font-size="116.312003" font-weight="bold" sketch:alignment="middle" fill="#C3493F">
                <tspan x="198.498028" y="303">Je suis perdu!</tspan>
            </text>
            <g id="icon_35678" sketch:type="MSLayerGroup" transform="translate(518.000000, 922.000000)" fill="#C3493F">
                <path d="M36.226,16.361 L33.703,16.361 C33.299,16.361 32.924,16.511 32.605,16.771 L32.605,13.408 C32.605,11.941 31.57,10.754 30.292,10.754 L27.46,10.754 C27.051,10.754 26.667,10.877 26.333,11.09 L26.333,10.606 C26.333,9.141 25.298,7.951 24.02,7.951 L21.186,7.951 C20.655,7.951 20.166,8.16 19.776,8.505 L19.776,2.195 C19.776,0.729 18.587,-0.46 17.12,-0.46 L13.868,-0.46 C12.058,-0.226 10.766,0.422 10.977,4.254 L10.977,20.571 C10.958,21.392 10.947,21.759 11.021,21.869 L11.211,21.492 C9.882,20.07 7.744,17.723 7.744,17.723 C6.847,16.564 5.077,16.429 3.788,17.425 L0.933,19.633 C-0.355,20.628 -0.671,22.376 0.226,23.536 L10.977,37.444 L10.977,37.473 C11.039,37.544 11.106,37.619 11.167,37.69 L11.662,38.331 L12.495,39.409 C12.692,39.665 12.906,39.896 13.13,40.114 C13.229,40.159 13.856,40.971 14.086,41.23 L14.086,46.459 L34.555,46.459 L37.594,33.331 C37.594,33.331 38.283,31.026 38.283,30.524 L38.283,19.017 C38.284,17.549 37.363,16.361 36.226,16.361 L36.226,16.361 Z M33.698,45.353 L15.193,45.353 L15.237,40.717 L14.956,40.402 C14.408,39.788 13.839,39.056 13.325,38.475 L1.197,22.785 C0.675,22.111 0.86,21.089 1.61,20.508 L4.465,18.301 C5.215,17.722 6.25,17.799 6.773,18.475 L12.318,24.52 C12.272,24.034 12.318,22.391 12.318,22.116 L12.318,2.195 C12.318,1.341 13.013,0.646 13.868,0.646 L17.12,0.646 C17.974,0.646 18.67,1.341 18.67,2.195 L18.67,21.862 C19.054,21.742 19.443,21.632 19.839,21.529 L19.839,10.605 C19.839,9.751 20.443,9.056 21.187,9.056 L24.021,9.056 C24.764,9.056 25.371,9.751 25.371,10.605 C25.371,10.605 25.302,20.954 25.378,20.959 C25.698,20.984 26.017,21.02 26.334,21.067 L26.334,12.558 C26.576,12.138 26.99,11.861 27.461,11.861 L30.293,11.861 C31.037,11.861 31.644,12.554 31.644,13.408 L31.644,19.016 L31.644,23.412 C31.973,23.682 32.293,23.977 32.606,24.301 L32.606,18.384 C32.794,17.844 33.214,17.466 33.704,17.466 L36.227,17.466 C36.888,17.466 37.427,18.161 37.427,19.016 L37.427,30.525 C37.426,30.952 33.698,45.353 33.698,45.353 Z" id="Shape" sketch:type="MSShapeGroup"></path>
            </g>
        </g>
    </g>
</svg>